<?xml version="1.0" encoding="utf-8"?>
<!-- Generator: Adobe Illustrator 23.0.3, SVG Export Plug-In . SVG Version: 6.00 Build 0)  -->
<svg version="1.1" id="Layer_1" xmlns="http://www.w3.org/2000/svg" xmlns:xlink="http://www.w3.org/1999/xlink" x="0px" y="0px"
	 width="48px" height="48px" viewBox="0 0 48 48" enable-background="new 0 0 48 48" xml:space="preserve">
<g>
	<path fill="none" d="M34,14.15625c-0.00049-2.82971-1.10669-5.36761-2.88306-7.20496C29.33594,5.11584,26.9184,4.00146,24.23535,4
		h-0.4707c-2.68335,0.00146-5.10083,1.11584-6.88171,2.95129C15.10657,8.78857,14.00049,11.32648,14,14.15625V19h20V14.15625z"/>
	<path fill="none" d="M38.75488,23H9.24463C9.11011,23.00024,9.00024,23.11011,9,23.24463v20.51025
		C9.00024,43.89026,9.11017,43.99976,9.24463,44h29.51025C38.8902,43.99976,38.99976,43.8902,39,43.75488V23.24463
		C38.99976,23.11017,38.89032,23.00024,38.75488,23z M27,34.26172C27,35.77344,25.77344,37,24.26123,37h-0.52246
		C22.22607,37,21,35.77344,21,34.26172v-1.52344C21,31.22656,22.22607,30,23.73877,30h0.52246C25.77344,30,27,31.22656,27,32.73828
		V34.26172z"/>
	<path fill="#FFFFFF" d="M38.75488,19H38v-4.84375c0.00049-3.88422-1.5271-7.42444-4.00879-9.98676
		C31.51416,1.60535,28.04938-0.00146,24.23535,0h-0.4707c-3.81427-0.00153-7.27905,1.60535-9.7561,4.16956
		C11.52698,6.73187,9.99951,10.27209,10,14.15625V19H9.24463C6.89966,19.00122,5.00122,20.89966,5,23.24463v20.51025
		C5.00104,46.09991,6.8996,47.9989,9.24463,48h29.51025c2.34515-0.00098,4.24414-1.90002,4.24512-4.24512V23.24463
		C42.9989,20.89954,41.09991,19.00104,38.75488,19z M14,14.15625c0.00049-2.82977,1.10657-5.36768,2.88293-7.20496
		C18.66382,5.11584,21.0813,4.00146,23.76465,4h0.4707c2.68304,0.00146,5.10059,1.11584,6.88159,2.95129
		C32.89331,8.78864,33.99951,11.32654,34,14.15625V19H14V14.15625z M39,43.75488C38.99976,43.8902,38.8902,43.99976,38.75488,44
		H9.24463C9.11017,43.99976,9.00024,43.89026,9,43.75488V23.24463C9.00024,23.11011,9.11011,23.00024,9.24463,23h29.51025
		c0.13544,0.00024,0.24487,0.11017,0.24512,0.24463V43.75488z"/>
	<path fill="#FFFFFF" d="M24.26123,30h-0.52246C22.22607,30,21,31.22656,21,32.73828v1.52344C21,35.77344,22.22607,37,23.73877,37
		h0.52246C25.77344,37,27,35.77344,27,34.26172v-1.52344C27,31.22656,25.77344,30,24.26123,30z"/>
</g>
</svg>
